<svg width="120" height="101" viewBox="0 0 120 101" fill="none" xmlns="http://www.w3.org/2000/svg">
<mask id="mask0_402_493" style="mask-type:luminance" maskUnits="userSpaceOnUse" x="1" y="3" width="98" height="97">
<path d="M50.3128 99.9997C77.0659 99.9997 98.7536 78.312 98.7536 51.5589C98.7536 24.8058 77.0659 3.11816 50.3128 3.11816C23.5597 3.11816 1.87207 24.8058 1.87207 51.5589C1.87207 78.312 23.5597 99.9997 50.3128 99.9997Z" fill="white"/>
</mask>
<g mask="url(#mask0_402_493)">
<path d="M50.2545 90.7194C54.0297 90.7194 57.0902 87.6589 57.0902 83.8836C57.0902 80.1083 54.0297 77.0479 50.2545 77.0479C46.4792 77.0479 43.4187 80.1083 43.4187 83.8836C43.4187 87.6589 46.4792 90.7194 50.2545 90.7194Z" fill="#00D1D2" stroke="#34303D" stroke-width="2"/>
<path d="M38.7949 132.017V22.3785C38.7949 21.4638 39.535 20.7236 40.4498 20.7236H60.1754C61.0901 20.7236 61.8303 21.4638 61.8303 22.3785V132.017" stroke="#34303D" stroke-width="2"/>
<path d="M38.8032 132.008C38.8199 148.299 39.6265 162.12 41.2065 173.463H50.5953M39.1608 21.3552L43.4186 16.5153C43.6265 16.2825 43.9259 16.1494 44.2336 16.1494H56.5828C56.8989 16.1494 57.2065 16.2908 57.4144 16.5319L61.456 21.3552" stroke="#34303D" stroke-width="2" stroke-linejoin="round"/>
<path d="M53.9299 82.2871L46.5952 85.4222" stroke="#34303D" stroke-width="2"/>
</g>
<path d="M50.3128 99.9997C77.0659 99.9997 98.7536 78.312 98.7536 51.5589C98.7536 24.8058 77.0659 3.11816 50.3128 3.11816C23.5597 3.11816 1.87207 24.8058 1.87207 51.5589C1.87207 78.312 23.5597 99.9997 50.3128 99.9997Z" stroke="#34303D" stroke-width="2"/>
<path d="M118.128 24.1164C118.128 36.8833 107.778 47.2328 95.0114 47.2328C82.2446 47.2328 71.895 36.8833 71.895 24.1164C71.895 11.3496 82.2446 1 95.0114 1C107.778 1 118.128 11.3496 118.128 24.1164Z" fill="#00D1D2" stroke="#34303D" stroke-width="2"/>
<path d="M95.361 35.1023C93.2238 35.1023 91.1341 34.4944 89.3293 33.345C87.2396 32.0152 85.6248 30.0015 84.7794 27.6648C83.9435 25.3281 83.896 22.7444 84.6559 20.3887C85.3303 18.3085 86.6127 16.4467 88.3129 15.0789H84.4089C84.143 15.0789 83.877 14.9744 83.687 14.7844C83.4971 14.5945 83.3926 14.338 83.3926 14.0625C83.3926 13.7871 83.4971 13.5496 83.687 13.3501C83.877 13.1507 84.1335 13.0557 84.4089 13.0557H91.9985V20.6452C91.9985 20.9206 91.894 21.1676 91.704 21.3576C91.514 21.5476 91.2576 21.652 90.9916 21.652C90.8491 21.652 90.7256 21.6235 90.6021 21.5761C90.4787 21.5286 90.3647 21.4526 90.2697 21.3576C90.1747 21.2626 90.0987 21.1486 90.0512 21.0251C90.0037 20.9016 89.9752 20.7687 89.9752 20.6357V16.4277C88.4744 17.5201 87.3251 19.0589 86.7076 20.8162C86.0332 22.7349 86.0142 24.8626 86.6697 26.7909C87.3156 28.7191 88.6169 30.4004 90.3172 31.5308C91.8275 32.5281 93.5752 33.0506 95.38 33.0506C95.6175 33.0506 95.855 33.0506 96.1019 33.0221C98.1347 32.8606 100.082 32.0152 101.583 30.6379C103.084 29.2606 104.1 27.3988 104.442 25.3946C104.784 23.3808 104.442 21.2911 103.473 19.4958C102.504 17.7006 100.946 16.2662 99.0845 15.4494C98.8376 15.3259 98.6476 15.1264 98.5526 14.8699C98.4576 14.6135 98.4671 14.338 98.5716 14.091C98.6761 13.8441 98.8756 13.6541 99.1225 13.5496C99.246 13.5021 99.379 13.4736 99.512 13.4736C99.645 13.4736 99.7779 13.5021 99.9014 13.5496C102.181 14.547 104.081 16.3042 105.268 18.4795C106.456 20.6547 106.883 23.2098 106.484 25.651C106.085 28.1017 104.869 30.3814 103.055 32.0722C101.241 33.763 98.8851 34.8268 96.4154 35.0548C96.0734 35.0833 95.722 35.1023 95.38 35.1023H95.361Z" fill="#34303D"/>
</svg>
