<svg width="120" height="101" viewBox="0 0 120 101" fill="none" xmlns="http://www.w3.org/2000/svg">
<mask id="mask0_402_479" style="mask-type:luminance" maskUnits="userSpaceOnUse" x="1" y="3" width="98" height="97">
<path d="M50.3128 100C77.0659 100 98.7536 78.3125 98.7536 51.5594C98.7536 24.8063 77.0659 3.11865 50.3128 3.11865C23.5597 3.11865 1.87207 24.8063 1.87207 51.5594C1.87207 78.3125 23.5597 100 50.3128 100Z" fill="white"/>
</mask>
<g mask="url(#mask0_402_479)">
<path d="M50.2545 90.7194C54.0297 90.7194 57.0902 87.6589 57.0902 83.8836C57.0902 80.1083 54.0297 77.0479 50.2545 77.0479C46.4792 77.0479 43.4187 80.1083 43.4187 83.8836C43.4187 87.6589 46.4792 90.7194 50.2545 90.7194Z" fill="#00D1D2" stroke="#34303D" stroke-width="2"/>
<path d="M38.7949 132.017V22.3785C38.7949 21.4638 39.535 20.7236 40.4498 20.7236H60.1754C61.0901 20.7236 61.8303 21.4638 61.8303 22.3785V132.017" stroke="#34303D" stroke-width="2"/>
<path d="M38.8032 132.008C38.8199 148.299 39.6265 162.12 41.2065 173.463H50.5953M39.1608 21.3552L43.4186 16.5153C43.6265 16.2825 43.9259 16.1494 44.2336 16.1494H56.5828C56.8989 16.1494 57.2065 16.2908 57.4144 16.5319L61.456 21.3552" stroke="#34303D" stroke-width="2" stroke-linejoin="round"/>
<path d="M53.9302 82.2866L46.5955 85.4218" stroke="#34303D" stroke-width="2"/>
</g>
<path d="M50.3128 100C77.0659 100 98.7536 78.3125 98.7536 51.5594C98.7536 24.8063 77.0659 3.11865 50.3128 3.11865C23.5597 3.11865 1.87207 24.8063 1.87207 51.5594C1.87207 78.3125 23.5597 100 50.3128 100Z" stroke="#34303D" stroke-width="2"/>
<path d="M118.128 24.1164C118.128 36.8833 107.778 47.2328 95.0114 47.2328C82.2446 47.2328 71.895 36.8833 71.895 24.1164C71.895 11.3496 82.2446 1 95.0114 1C107.778 1 118.128 11.3496 118.128 24.1164Z" fill="#00D1D2" stroke="#34303D" stroke-width="2"/>
<path d="M100.296 36.2115C100.156 36.2115 100.016 36.1815 99.886 36.1315C99.756 36.0715 99.636 36.0015 99.536 35.8915L93.956 30.3015L93.876 30.3215C93.336 30.4315 92.776 30.4915 92.206 30.4915C90.596 30.4915 89.076 30.1015 87.726 29.3715C86.356 28.6315 85.196 27.5515 84.356 26.2415C83.516 24.9315 83.016 23.4215 82.916 21.8615C82.816 20.3115 83.106 18.7515 83.756 17.3415C83.826 17.1815 83.946 17.0515 84.076 16.9415C84.216 16.8415 84.376 16.7715 84.546 16.7415C84.616 16.7315 84.676 16.7215 84.736 16.7215C84.846 16.7215 84.946 16.7415 85.056 16.7715C85.216 16.8215 85.366 16.9115 85.496 17.0315L90.916 22.4615L93.336 20.0415L87.906 14.6315C87.786 14.5115 87.696 14.3615 87.636 14.1915C87.586 14.0315 87.576 13.8515 87.606 13.6815C87.636 13.5115 87.706 13.3415 87.816 13.2115C87.926 13.0715 88.066 12.9615 88.216 12.8915C89.426 12.3215 90.776 12.0215 92.126 12.0215C92.326 12.0215 92.526 12.0215 92.726 12.0415C94.276 12.1415 95.776 12.6315 97.086 13.4715C98.396 14.3015 99.476 15.4615 100.226 16.8215C100.976 18.1815 101.366 19.7115 101.366 21.2615C101.366 21.8315 101.306 22.4015 101.196 22.9415L101.176 23.0215L106.806 28.6415H106.866C107.016 28.8015 107.126 29.0715 107.126 29.3615C107.126 29.6515 107.016 29.9215 106.806 30.1215C106.606 30.3215 106.336 30.4415 106.046 30.4415C105.756 30.4415 105.486 30.3315 105.286 30.1215L99.286 24.1215C99.156 23.9915 99.056 23.8315 99.016 23.6515C98.966 23.4715 98.966 23.2815 99.016 23.1015C99.176 22.5015 99.256 21.8815 99.266 21.2515C99.266 19.3615 98.526 17.5815 97.196 16.2415C95.856 14.9015 94.086 14.1615 92.186 14.1615C91.756 14.1615 91.346 14.1915 90.936 14.2615L90.646 14.3115L95.616 19.3215C95.806 19.5215 95.916 19.7815 95.916 20.0715C95.916 20.3615 95.806 20.6215 95.616 20.8215L91.726 24.7515C91.626 24.8515 91.506 24.9315 91.376 24.9915C91.246 25.0415 91.106 25.0715 90.966 25.0715C90.826 25.0715 90.686 25.0415 90.556 24.9915C90.426 24.9415 90.306 24.8615 90.206 24.7515L85.186 19.7215L85.136 20.0115C85.066 20.4215 85.036 20.8415 85.036 21.2615C85.036 22.2015 85.226 23.1215 85.586 23.9815C85.946 24.8515 86.476 25.6215 87.136 26.2815C87.806 26.9415 88.586 27.4615 89.456 27.8115C90.306 28.1615 91.206 28.3315 92.116 28.3315C92.806 28.3315 93.426 28.2415 94.036 28.0815C94.116 28.0615 94.206 28.0515 94.296 28.0515C94.396 28.0515 94.486 28.0615 94.576 28.0915C94.756 28.1415 94.916 28.2315 95.046 28.3615L101.046 34.3615C101.146 34.4615 101.226 34.5815 101.286 34.7115C101.346 34.8415 101.366 34.9815 101.366 35.1215C101.366 35.2615 101.336 35.4015 101.286 35.5315C101.226 35.6615 101.156 35.7815 101.046 35.8815C100.946 35.9815 100.826 36.0615 100.696 36.1215C100.566 36.1715 100.426 36.2015 100.286 36.2015L100.296 36.2115Z" fill="#34303D"/>
</svg>
