<svg width="42" height="42" viewBox="0 0 42 42" fill="none" xmlns="http://www.w3.org/2000/svg">
<path d="M30.9225 3.97388C27.9976 2.25441 24.5853 1.26172 20.9513 1.26172C10.076 1.26172 1.26593 10.0718 1.26593 20.9471C1.26593 31.8223 10.076 40.6324 20.9513 40.6324C31.8266 40.6324 40.6367 31.8223 40.6367 20.9471" stroke="#00D1D2" stroke-width="1.8" stroke-linecap="round"/>
<path d="M29.203 7.13818C26.8099 5.72892 24.018 4.92236 21.0399 4.92236C12.1412 4.92236 4.92645 12.1371 4.92645 21.0358C4.92645 29.9345 12.1412 37.1493 21.0399 37.1493C29.9387 37.1493 37.1534 29.9345 37.1534 21.0358" stroke="#34303D" stroke-width="1.8" stroke-linecap="round"/>
<path d="M11.3701 19.3251L19.3293 27.6566L39.511 6.9165" stroke="#00D1D2" stroke-width="1.8" stroke-linecap="round" stroke-linejoin="round"/>
</svg>
