<svg width="60" height="60" viewBox="0 0 60 60" fill="none" xmlns="http://www.w3.org/2000/svg">
<g clip-path="url(#clip0_315_268)">
<path d="M44.5411 5.24718C40.2757 2.73964 35.2994 1.29199 30 1.29199C14.1404 1.29199 1.29254 14.1399 1.29254 29.9994C1.29254 45.859 14.1404 58.7069 30 58.7069C45.8595 58.7069 58.7074 45.859 58.7074 29.9994" stroke="#34303D" stroke-width="2" stroke-linecap="round"/>
<path d="M42.0336 9.86125C38.5437 7.8061 34.4722 6.62988 30.1292 6.62988C17.1521 6.62988 6.63074 17.1512 6.63074 30.1284C6.63074 43.1055 17.1521 53.6269 30.1292 53.6269C43.1064 53.6269 53.6277 43.1055 53.6277 30.1284" stroke="white" stroke-width="2" stroke-linecap="round"/>
<path d="M16.0276 27.6347L27.6347 39.7847L57.0659 9.53906" stroke="#34303D" stroke-width="2" stroke-linecap="round" stroke-linejoin="round"/>
</g>
<defs>
<clipPath id="clip0_315_268">
<rect width="60" height="60" fill="white"/>
</clipPath>
</defs>
</svg>
