<svg width="120" height="102" viewBox="0 0 120 102" fill="none" xmlns="http://www.w3.org/2000/svg">
<mask id="mask0_326_167" style="mask-type:luminance" maskUnits="userSpaceOnUse" x="1" y="3" width="98" height="98">
<path d="M97.7536 52.181C97.7536 78.3818 76.5137 99.6217 50.3129 99.6217C24.1121 99.6217 2.87213 78.3818 2.87213 52.181C2.87213 25.9802 24.1121 4.74023 50.3129 4.74023C76.5137 4.74023 97.7536 25.9802 97.7536 52.181Z" fill="white" stroke="white" stroke-width="2"/>
</mask>
<g mask="url(#mask0_326_167)">
<path d="M50.2547 91.3409C54.03 91.3409 57.0905 88.2805 57.0905 84.5052C57.0905 80.7299 54.03 77.6694 50.2547 77.6694C46.4794 77.6694 43.4189 80.7299 43.4189 84.5052C43.4189 88.2805 46.4794 91.3409 50.2547 91.3409Z" fill="#00D1D2" stroke="#34303D" stroke-width="2"/>
<path d="M38.7952 132.638V23.0001C38.7952 22.0853 39.5353 21.3452 40.4501 21.3452H60.1757C61.0904 21.3452 61.8306 22.0853 61.8306 23.0001V132.638" stroke="#34303D" stroke-width="2"/>
<path d="M38.8035 132.63C38.8202 148.921 39.6268 162.742 41.2069 174.085H50.5956M39.1611 21.9768L43.4189 17.1369C43.6268 16.9041 43.9262 16.771 44.2339 16.771H56.5832C56.8992 16.771 57.2069 16.9124 57.4148 17.1535L61.4563 21.9768" stroke="#34303D" stroke-width="2" stroke-linejoin="round"/>
<path d="M53.9304 82.9082L46.5956 86.0433" stroke="#34303D" stroke-width="2"/>
</g>
<path d="M50.3129 100.622C77.066 100.622 98.7536 78.9341 98.7536 52.181C98.7536 25.4279 77.066 3.74023 50.3129 3.74023C23.5598 3.74023 1.87213 25.4279 1.87213 52.181C1.87213 78.9341 23.5598 100.622 50.3129 100.622Z" stroke="#34303D" stroke-width="2"/>
<path d="M118.128 24.738C118.128 37.5049 107.778 47.8544 95.0114 47.8544C82.2446 47.8544 71.895 37.5049 71.895 24.738C71.895 11.9712 82.2446 1.62158 95.0114 1.62158C107.778 1.62158 118.128 11.9712 118.128 24.738Z" fill="#00D1D2" stroke="#34303D" stroke-width="2"/>
<path d="M86.646 16.3727C86.7618 16.2566 86.8995 16.1645 87.051 16.1016C87.2025 16.0387 87.3649 16.0063 87.529 16.0063C87.693 16.0063 87.8554 16.0387 88.0069 16.1016C88.1585 16.1645 88.2961 16.2566 88.4119 16.3727L95.0117 22.975L101.612 16.3727C101.727 16.2568 101.865 16.1648 102.017 16.1021C102.168 16.0393 102.331 16.007 102.495 16.007C102.658 16.007 102.821 16.0393 102.972 16.1021C103.124 16.1648 103.262 16.2568 103.377 16.3727C103.493 16.4887 103.585 16.6263 103.648 16.7778C103.711 16.9293 103.743 17.0917 103.743 17.2557C103.743 17.4197 103.711 17.5821 103.648 17.7336C103.585 17.8851 103.493 18.0227 103.377 18.1387L96.7752 24.7385L103.377 31.3383C103.493 31.4542 103.585 31.5919 103.648 31.7434C103.711 31.8949 103.743 32.0573 103.743 32.2213C103.743 32.3852 103.711 32.5476 103.648 32.6991C103.585 32.8506 103.493 32.9883 103.377 33.1042C103.262 33.2202 103.124 33.3122 102.972 33.3749C102.821 33.4377 102.658 33.47 102.495 33.47C102.331 33.47 102.168 33.4377 102.017 33.3749C101.865 33.3122 101.727 33.2202 101.612 33.1042L95.0117 26.5019L88.4119 33.1042C88.296 33.2202 88.1583 33.3122 88.0068 33.3749C87.8553 33.4377 87.6929 33.47 87.529 33.47C87.365 33.47 87.2026 33.4377 87.0511 33.3749C86.8996 33.3122 86.7619 33.2202 86.646 33.1042C86.53 32.9883 86.4381 32.8506 86.3753 32.6991C86.3126 32.5476 86.2803 32.3852 86.2803 32.2213C86.2803 32.0573 86.3126 31.8949 86.3753 31.7434C86.4381 31.5919 86.53 31.4542 86.646 31.3383L93.2483 24.7385L86.646 18.1387C86.5299 18.0228 86.4377 17.8852 86.3748 17.7337C86.312 17.5822 86.2796 17.4197 86.2796 17.2557C86.2796 17.0917 86.312 16.9292 86.3748 16.7777C86.4377 16.6262 86.5299 16.4886 86.646 16.3727Z" fill="#34303D"/>
</svg>
