<svg width="79" height="73" viewBox="0 0 79 73" fill="none" xmlns="http://www.w3.org/2000/svg">
<path d="M32.9783 5.76689L2.4112 59.691C-0.625875 65.0494 3.02547 71.8604 8.93435 71.8604H70.0655C75.9744 71.8604 79.6257 65.0494 76.5887 59.691L46.0215 5.76689C43.0686 0.558173 35.9281 0.558173 32.9752 5.76689H32.9783Z" fill="#F6F4F0" stroke="#FFD040" stroke-width="2"/>
<path d="M39.5263 54.1385C37.4928 54.1385 36.2284 52.4967 36.2284 50.4702L35.4592 21.1214C35.4592 19.0949 37.4928 17.4531 39.5263 17.4531C41.5599 17.4531 43.5935 19.0949 43.5935 21.1214L42.8243 50.4702C42.8243 52.4967 41.5599 54.1385 39.5263 54.1385Z" fill="#FFD040"/>
<path d="M39.5263 64.185C41.4405 64.185 42.9922 62.6387 42.9922 60.7312C42.9922 58.8237 41.4405 57.2773 39.5263 57.2773C37.6122 57.2773 36.0604 58.8237 36.0604 60.7312C36.0604 62.6387 37.6122 64.185 39.5263 64.185Z" fill="#FFD040"/>
</svg>
