<svg width="61" height="61" viewBox="0 0 61 61" fill="none" xmlns="http://www.w3.org/2000/svg">
<path d="M44.6364 5.34289C40.371 2.83535 35.3947 1.3877 30.0952 1.3877C14.2357 1.3877 1.38776 14.2356 1.38776 30.0951C1.38776 45.9547 14.2357 58.8026 30.0952 58.8026C45.9548 58.8026 58.8027 45.9547 58.8027 30.0951" stroke="#00D1D2" stroke-width="2.58509" stroke-linecap="round"/>
<path d="M42.1289 9.95793C38.639 7.90278 34.5675 6.72656 30.2245 6.72656C17.2474 6.72656 6.72601 17.2479 6.72601 30.2251C6.72601 43.2022 17.2474 53.7236 30.2245 53.7236C43.2017 53.7236 53.7231 43.2022 53.7231 30.2251" stroke="#FFFDFB" stroke-width="2.58509" stroke-linecap="round"/>
<path d="M16.1228 27.7299L27.7299 39.8799L57.1612 9.63428" stroke="#00D1D2" stroke-width="2.58509" stroke-linecap="round" stroke-linejoin="round"/>
</svg>
