<svg width="0" height="0" class="hidden">
  <symbol fill="none" xmlns="http://www.w3.org/2000/svg" viewBox="0 0 40 40" id="Left">
    <circle opacity="0.5" cx="20" cy="20" r="19.5" stroke="white"></circle>
    <path d="M21.8984 17.25C21.8984 17.1797 21.8672 17.1172 21.8203 17.0703L21.4297 16.6797C21.3828 16.6328 21.3125 16.6016 21.25 16.6016C21.1875 16.6016 21.1172 16.6328 21.0703 16.6797L17.4297 20.3203C17.3828 20.3672 17.3516 20.4375 17.3516 20.5C17.3516 20.5625 17.3828 20.6328 17.4297 20.6797L21.0703 24.3203C21.1172 24.3672 21.1875 24.3984 21.25 24.3984C21.3125 24.3984 21.3828 24.3672 21.4297 24.3203L21.8203 23.9297C21.8672 23.8828 21.8984 23.8125 21.8984 23.75C21.8984 23.6875 21.8672 23.6172 21.8203 23.5703L18.75 20.5L21.8203 17.4297C21.8672 17.3828 21.8984 17.3125 21.8984 17.25Z" fill="white"></path>
  </symbol>

  <symbol fill="none" xmlns="http://www.w3.org/2000/svg" viewBox="0 0 40 40" id="Right">
    <circle opacity="0.5" cx="20" cy="20" r="19.5" stroke="white"></circle>
    <path d="M22.6484 20.5C22.6484 20.4375 22.6172 20.3672 22.5703 20.3203L18.9297 16.6797C18.8828 16.6328 18.8125 16.6016 18.75 16.6016C18.6875 16.6016 18.6172 16.6328 18.5703 16.6797L18.1797 17.0703C18.1328 17.1172 18.1016 17.1875 18.1016 17.25C18.1016 17.3125 18.1328 17.3828 18.1797 17.4297L21.25 20.5L18.1797 23.5703C18.1328 23.6172 18.1016 23.6875 18.1016 23.75C18.1016 23.8203 18.1328 23.8828 18.1797 23.9297L18.5703 24.3203C18.6172 24.3672 18.6875 24.3984 18.75 24.3984C18.8125 24.3984 18.8828 24.3672 18.9297 24.3203L22.5703 20.6797C22.6172 20.6328 22.6484 20.5625 22.6484 20.5Z" fill="white"></path>
  </symbol>

  <symbol fill="none" xmlns="http://www.w3.org/2000/svg" viewBox="0 0 42 40" id="Arrow">
    <path d="M24.9048 19.111C24.9606 19.1669 24.9885 19.231 24.9885 19.3036C24.9885 19.3761 24.9606 19.4403 24.9048 19.4961L21.0041 23.3968C20.9483 23.4526 20.8841 23.4805 20.8116 23.4805C20.7391 23.4805 20.6749 23.4526 20.6191 23.3968L16.7184 19.4961C16.6626 19.4403 16.6347 19.3761 16.6347 19.3036C16.6347 19.231 16.6626 19.1669 16.7184 19.111L17.1369 18.6925C17.1927 18.6367 17.2569 18.6088 17.3295 18.6088C17.402 18.6088 17.4662 18.6367 17.522 18.6925L20.8116 21.9821L24.1012 18.6925C24.157 18.6367 24.2212 18.6088 24.2937 18.6088C24.3663 18.6088 24.4305 18.6367 24.4863 18.6925L24.9048 19.111Z" fill="white"></path>
    <path opacity="0.7" d="M40.5447 20C40.5447 30.7685 31.7958 39.5 21.0011 39.5C10.2064 39.5 1.45746 30.7685 1.45746 20C1.45746 9.23147 10.2064 0.5 21.0011 0.5C31.7958 0.5 40.5447 9.23147 40.5447 20Z" stroke="white"></path>
  </symbol>
</svg>