<svg width="66" height="78" viewBox="0 0 66 78" fill="none" xmlns="http://www.w3.org/2000/svg">
<path d="M53.9727 49.0543L64.148 66.6797L52.5375 65.1316L48.0707 75.952L36.2021 55.7949" stroke="#34303D" stroke-width="2.5" stroke-linejoin="round"/>
<path d="M12.1909 49.0543L2.01562 66.6797L13.6261 65.1316L18.0929 75.952L30.3807 56.2141" stroke="#34303D" stroke-width="2.5" stroke-linejoin="round"/>
<path d="M32.8803 57.0689C48.0828 57.0689 60.4069 44.7448 60.4069 29.5423C60.4069 14.3398 48.0828 2.01575 32.8803 2.01575C17.6778 2.01575 5.35376 14.3398 5.35376 29.5423C5.35376 44.7448 17.6778 57.0689 32.8803 57.0689Z" stroke="#34303D" stroke-width="2.5"/>
<path d="M33.09 49.7962C44.3917 49.7962 53.5535 40.6343 53.5535 29.3327C53.5535 18.031 44.3917 8.86914 33.09 8.86914C21.7883 8.86914 12.6265 18.031 12.6265 29.3327C12.6265 40.6343 21.7883 49.7962 33.09 49.7962Z" fill="#00D1D2"/>
<path d="M26.9622 33.9768H38.7823M21.0602 25.527H44.7005" stroke="#34303D" stroke-width="2.5" stroke-linecap="round"/>
</svg>
